<?xml version="1.0" encoding="utf-8"?>
<!-- Generator: Adobe Illustrator 24.0.0, SVG Export Plug-In . SVG Version: 6.00 Build 0)  -->
<svg version="1.1" id="Layer_1" xmlns="http://www.w3.org/2000/svg" xmlns:xlink="http://www.w3.org/1999/xlink" x="0px" y="0px"
	 viewBox="0 0 1296 1728" style="enable-background:new 0 0 1296 1728;" xml:space="preserve">
<style type="text/css">
	.st0{fill:#EF4B3F;}
	.st1{fill:#FFFFFF;}
</style>
<path class="st0" d="M668.3,879.2c-2.4,3.8-4,8.2-9.4,3.4c-2.1,1.4-5.1,1.6-4.8,4.9c0.4,3.9-1.8,4.4-4.8,4c-2.6-0.4-6.4,1.9-6.9-3.5
	c-0.4-4.6-2.9-5.9-7.3-3.8c-4,1.9-4.5-1.3-5.6-3.3c-1.1-2.1-4.2-4.2-0.2-6.9c4-2.8,3.7-5.9-0.5-8.5c-2-1.3-2.9-2.3-1.2-4.6
	c2.3-3.2,3.1-8.1,9.3-4.6c2.2,1.3,5.3-1.1,5.2-4.6c-0.2-3.3,1.6-4.1,4.2-3.5c2.7,0.6,6.8-2.3,7.4,3.4c0.5,4.7,3,6,7.3,3.9
	c3.5-1.7,4.5,0.6,5.4,2.8c1,2.3,4.8,4.4,0.5,7.4c-3.9,2.8-3.8,5.9,0.1,8.3C669.5,875.4,669.9,876.6,668.3,879.2z"/>
<path class="st0" d="M648,789c-41.4,0-75,33.6-75,75c0,41.4,33.6,75,75,75s75-33.6,75-75C723,822.6,689.4,789,648,789z M695,856.8
	c-1.8,2.7-3.3-0.5-5.5-0.7v35.4c0,4.8-0.1,9.6,0,14.3c0,2.5-1,3.5-3.5,3.5c-25.4-0.1-50.7-0.1-76.1,0c-3.5,0-3.5-2-3.5-4.5
	c0-16.1,0-32.3,0-49.3c-1.3,0.9-2,1.3-2.6,1.8c-1.2,0.8-2.2,0.7-3-0.5c-0.7-1-0.1-1.9,0.6-2.6c0.2-0.2,0.5-0.4,0.8-0.6
	c14.5-11.4,29-22.7,43.5-34.2c1.9-1.5,3.2-1,4.8,0.3c14.2,11.2,28.5,22.4,42.7,33.6C694.4,854.2,696.2,855,695,856.8z"/>
<g>
	<path class="st1" d="M668.3,879.2c-2.4,3.8-4,8.2-9.4,3.4c-2.1,1.4-5.1,1.6-4.8,4.9c0.4,3.9-1.8,4.4-4.8,4
		c-2.6-0.4-6.4,1.9-6.9-3.5c-0.4-4.6-2.9-5.9-7.3-3.8c-4,1.9-4.5-1.3-5.6-3.3c-1.1-2.1-4.2-4.2-0.2-6.9c4-2.8,3.7-5.9-0.5-8.5
		c-2-1.3-2.9-2.3-1.2-4.6c2.3-3.2,3.1-8.1,9.3-4.6c2.2,1.3,5.3-1.1,5.2-4.6c-0.2-3.3,1.6-4.1,4.2-3.5c2.7,0.6,6.8-2.3,7.4,3.4
		c0.5,4.7,3,6,7.3,3.9c3.5-1.7,4.5,0.6,5.4,2.8c1,2.3,4.8,4.4,0.5,7.4c-3.9,2.8-3.8,5.9,0.1,8.3
		C669.5,875.4,669.9,876.6,668.3,879.2z"/>
	<path class="st0" d="M668.3,879.2c-2.4,3.8-4,8.2-9.4,3.4c-2.1,1.4-5.1,1.6-4.8,4.9c0.4,3.9-1.8,4.4-4.8,4
		c-2.6-0.4-6.4,1.9-6.9-3.5c-0.4-4.6-2.9-5.9-7.3-3.8c-4,1.9-4.5-1.3-5.6-3.3c-1.1-2.1-4.2-4.2-0.2-6.9c4-2.8,3.7-5.9-0.5-8.5
		c-2-1.3-2.9-2.3-1.2-4.6c2.3-3.2,3.1-8.1,9.3-4.6c2.2,1.3,5.3-1.1,5.2-4.6c-0.2-3.3,1.6-4.1,4.2-3.5c2.7,0.6,6.8-2.3,7.4,3.4
		c0.5,4.7,3,6,7.3,3.9c3.5-1.7,4.5,0.6,5.4,2.8c1,2.3,4.8,4.4,0.5,7.4c-3.9,2.8-3.8,5.9,0.1,8.3
		C669.5,875.4,669.9,876.6,668.3,879.2z"/>
</g>
</svg>
