<?xml version="1.0" encoding="utf-8"?>
<!-- Generator: Adobe Illustrator 24.0.0, SVG Export Plug-In . SVG Version: 6.00 Build 0)  -->
<svg version="1.1" id="Layer_1" xmlns="http://www.w3.org/2000/svg" xmlns:xlink="http://www.w3.org/1999/xlink" x="0px" y="0px"
	 viewBox="0 0 1296 1728" style="enable-background:new 0 0 1296 1728;" xml:space="preserve">
<style type="text/css">
	.st0{fill:#EF4B3F;}
</style>
<path class="st0" d="M609.6,896.9c1.6,1.9,3.2,3.8,5,5.9c-2.3,0.6-4.6,1.2-7.5,2.1C608,901.8,608.1,899.3,609.6,896.9z"/>
<path class="st0" d="M679.8,825.1c-0.9-1.7,2.2-2,3.5-2.6c3.7,0.4,5.8,2.2,6,5.7c0.1,1.8-1,4.8-2.3,4
	C684.1,830.5,681.3,827.9,679.8,825.1z"/>
<path class="st0" d="M648,789c-41.4,0-75,33.6-75,75c0,41.4,33.6,75,75,75s75-33.6,75-75C723,822.6,689.4,789,648,789z M601.6,832
	c4.8-4.6,9.3-9.3,14.1-13.9c0.8-0.8,1.4-2.8,3-1.5c2,1.5,3.7,3.2,5.8,5.2c-1.7,1.5-2.8,2.5-3.9,3.4c-1.2,1.1-2.1,2-0.4,3.5
	c1.6,1.5,2.3,0.1,3.1-0.7c0.7-0.7,1.5-1.4,2.1-2.1c1.3-1.7,2.2-0.5,3.1,0.4c1,0.9,1.4,1.7,0.1,2.8c-1.5,1.3-2.8,2.8-4.3,4.1
	c-1,0.9-1.9,1.7-0.5,3.2c1.3,1.4,2.1,0.9,3.2-0.2c1.2-1.3,2.6-2.5,3.8-3.9c1.2-1.4,2.1-1.5,3.5-0.2c1.6,1.5,0.8,2.4-0.4,3.5
	c-0.8,0.6-1.4,1.4-2.1,2.1c-1.3,1-0.8,1.8,0.1,2.8c1.1,1.1,1.9,1,2.8-0.1c0.7-0.9,1.7-1.6,2.4-2.5c1.2-1.6,2.1-0.8,3.1,0.2
	c1.2,1.1,1.3,2,0,3.1c-1.6,1.4-3,3.1-4.6,4.5c-1.4,1.2-0.4,1.9,0.4,2.8c0.8,0.9,1.5,1,2.4,0c1.5-1.6,3-3,4.5-4.6
	c0.9-0.9,1.6-1.5,2.8-0.3c1.2,1.2,1.3,2,0,3.2c-5.2,5.1-10.3,10.2-15.4,15.4c-1.6,1.7-2.5,0.7-3.6-0.5c-8.5-8.5-17-17-25.6-25.4
	C599.5,834.5,600.1,833.5,601.6,832z M622.7,902.8c-5.1,5.1-12.1,4.6-18.2,6.6c-1.8,0.6-2.5-1.4-2-3c2.2-7.4,3.6-14.8,9.9-20.8
	c21.3-20.4,41.8-41.5,62.6-62.3c2.4-2.4,4.8-4.5,9.4-4.5c2.8,0.1,5.7,1.8,7.5,5c1.9,3.5,1.8,7-0.7,10.2c-1.8,2.3-4,4.4-6.1,6.5
	C664.4,861.1,643.5,881.9,622.7,902.8z M694.3,895.2c-4.9,5.1-10,10-15,15c-0.5,0.5-1.2,1-1.8,1.6c-0.9-0.8-1.5-1.3-2-1.9
	c-8.4-8.4-16.7-16.8-25.2-25.1c-1.8-1.8-1.9-2.9,0-4.7c3-2.8,5.7-6,8.8-8.6c2.6-2.1,6.7-2,8.8-5.3c0.5-0.8,1.6,0.7,2.3,1.2
	c1,0.8,0.8,1.6,0,2.4c-1.6,1.6-3.2,3.3-4.9,4.9c-1.2,1.1-0.8,1.9,0.2,2.8c1,1,1.8,1,2.8-0.1c1.3-1.5,2.9-2.7,4.1-4.2
	c1.3-1.5,2.2-1.4,3.6-0.1c1.5,1.4,0.7,2.2-0.4,3.1c-0.6,0.6-1.1,1.2-1.8,1.7c-1.2,1.1-2.1,2-0.4,3.5c1.9,1.7,2.5-0.1,3.4-0.9
	c0.8-0.6,1.4-1.3,2.1-2.1c1.3-1.4,2-0.1,2.8,0.5c1.1,0.9,1.3,1.7,0.2,2.7c-1.6,1.5-3,3.1-4.6,4.5c-1.3,1.2-1.1,2.1,0.1,3.2
	c1.2,1.2,1.9,0.6,2.8-0.3c1.1-1.2,2.3-2.4,3.5-3.5c1.1-1,1.8-2.9,3.9-0.9c2,1.9,0.4,2.7-0.6,3.8c-0.6,0.6-1.1,1.2-1.7,1.7
	c-1.5,1.2-0.9,2.1,0.2,3.2c1.2,1.1,1.9,0.4,2.7-0.4c1.1-1.2,2.2-2.8,3.6-3.2c1.4-0.4,2.3,1.6,3.3,2.6
	C696.6,894,694.9,894.6,694.3,895.2z"/>
</svg>
