<?xml version="1.0" encoding="utf-8"?>
<!-- Generator: Adobe Illustrator 24.0.0, SVG Export Plug-In . SVG Version: 6.00 Build 0)  -->
<svg version="1.1" id="Layer_1" xmlns="http://www.w3.org/2000/svg" xmlns:xlink="http://www.w3.org/1999/xlink" x="0px" y="0px"
	 viewBox="0 0 1296 1728" style="enable-background:new 0 0 1296 1728;" xml:space="preserve">
<style type="text/css">
	.st0{fill:#EF4B3F;}
</style>
<path class="st0" d="M688,825c0-2.4-0.8-3.6-3.4-3.6c-10.5,0.1-20.9,0.1-31.4,0c-2.4,0-3.2,1-3.2,3.3c0.1,6.4,0.1,12.8,0,19.2
	c0,2.3,1,3.6,3.3,3.1c6.4-1.2,7.8,2.4,8.2,8.5c3.7-11.4,12.8-8.1,20.4-8.4c0.8,0,1.7-0.1,2.5,0c2.5,0.2,3.6-0.8,3.6-3.4
	C687.9,837.5,687.9,831.3,688,825z M661,841.2c-1.3-0.2-3,0.6-3.1-1.8c-0.1-2.8,1.8-2,3.3-2.1c1.5-0.1,2.9-0.3,2.8,2.1
	C664,841.8,662.3,841,661,841.2z M665,831.3c-1.5,0-3,0-4.4,0c-1.3,0-2.6,0.2-2.6-1.9c0-1.9,0.8-2.1,2.4-2.1c3.1,0.1,6.3,0.1,9.4,0
	c1.6,0,2.4,0.3,2.3,2.2c-0.1,1.6-0.8,1.9-2.1,1.8C668.3,831.3,666.6,831.3,665,831.3z M675.3,841.1c-1.7,0.5-3.6,0-5.4,0.1
	c-1.5,0.1-1.9-0.6-1.9-2.1c0-1.5,0.6-2,2-1.9c1.8,0.1,3.6,0,5.8,0c1.6,1.3,5.9-2.3,5.9,1.8C681.8,843.5,677.5,840.5,675.3,841.1z
	 M679.1,831.3c-1.3-0.2-3,0.7-3.1-1.8c-0.1-2.3,1.2-2.3,2.7-2.1c1.4,0.1,3.4-0.8,3.4,2C682,831.9,680.3,831.2,679.1,831.3z M688,825
	c0-2.4-0.8-3.6-3.4-3.6c-10.5,0.1-20.9,0.1-31.4,0c-2.4,0-3.2,1-3.2,3.3c0.1,6.4,0.1,12.8,0,19.2c0,2.3,1,3.6,3.3,3.1
	c6.4-1.2,7.8,2.4,8.2,8.5c3.7-11.4,12.8-8.1,20.4-8.4c0.8,0,1.7-0.1,2.5,0c2.5,0.2,3.6-0.8,3.6-3.4C687.9,837.5,687.9,831.3,688,825
	z M661,841.2c-1.3-0.2-3,0.6-3.1-1.8c-0.1-2.8,1.8-2,3.3-2.1c1.5-0.1,2.9-0.3,2.8,2.1C664,841.8,662.3,841,661,841.2z M665,831.3
	c-1.5,0-3,0-4.4,0c-1.3,0-2.6,0.2-2.6-1.9c0-1.9,0.8-2.1,2.4-2.1c3.1,0.1,6.3,0.1,9.4,0c1.6,0,2.4,0.3,2.3,2.2
	c-0.1,1.6-0.8,1.9-2.1,1.8C668.3,831.3,666.6,831.3,665,831.3z M675.3,841.1c-1.7,0.5-3.6,0-5.4,0.1c-1.5,0.1-1.9-0.6-1.9-2.1
	c0-1.5,0.6-2,2-1.9c1.8,0.1,3.6,0,5.8,0c1.6,1.3,5.9-2.3,5.9,1.8C681.8,843.5,677.5,840.5,675.3,841.1z M679.1,831.3
	c-1.3-0.2-3,0.7-3.1-1.8c-0.1-2.3,1.2-2.3,2.7-2.1c1.4,0.1,3.4-0.8,3.4,2C682,831.9,680.3,831.2,679.1,831.3z M688,825
	c0-2.4-0.8-3.6-3.4-3.6c-10.5,0.1-20.9,0.1-31.4,0c-2.4,0-3.2,1-3.2,3.3c0.1,6.4,0.1,12.8,0,19.2c0,2.3,1,3.6,3.3,3.1
	c6.4-1.2,7.8,2.4,8.2,8.5c3.7-11.4,12.8-8.1,20.4-8.4c0.8,0,1.7-0.1,2.5,0c2.5,0.2,3.6-0.8,3.6-3.4C687.9,837.5,687.9,831.3,688,825
	z M661,841.2c-1.3-0.2-3,0.6-3.1-1.8c-0.1-2.8,1.8-2,3.3-2.1c1.5-0.1,2.9-0.3,2.8,2.1C664,841.8,662.3,841,661,841.2z M665,831.3
	c-1.5,0-3,0-4.4,0c-1.3,0-2.6,0.2-2.6-1.9c0-1.9,0.8-2.1,2.4-2.1c3.1,0.1,6.3,0.1,9.4,0c1.6,0,2.4,0.3,2.3,2.2
	c-0.1,1.6-0.8,1.9-2.1,1.8C668.3,831.3,666.6,831.3,665,831.3z M675.3,841.1c-1.7,0.5-3.6,0-5.4,0.1c-1.5,0.1-1.9-0.6-1.9-2.1
	c0-1.5,0.6-2,2-1.9c1.8,0.1,3.6,0,5.8,0c1.6,1.3,5.9-2.3,5.9,1.8C681.8,843.5,677.5,840.5,675.3,841.1z M679.1,831.3
	c-1.3-0.2-3,0.7-3.1-1.8c-0.1-2.3,1.2-2.3,2.7-2.1c1.4,0.1,3.4-0.8,3.4,2C682,831.9,680.3,831.2,679.1,831.3z M688,825
	c0-2.4-0.8-3.6-3.4-3.6c-10.5,0.1-20.9,0.1-31.4,0c-2.4,0-3.2,1-3.2,3.3c0.1,6.4,0.1,12.8,0,19.2c0,2.3,1,3.6,3.3,3.1
	c6.4-1.2,7.8,2.4,8.2,8.5c3.7-11.4,12.8-8.1,20.4-8.4c0.8,0,1.7-0.1,2.5,0c2.5,0.2,3.6-0.8,3.6-3.4C687.9,837.5,687.9,831.3,688,825
	z M661,841.2c-1.3-0.2-3,0.6-3.1-1.8c-0.1-2.8,1.8-2,3.3-2.1c1.5-0.1,2.9-0.3,2.8,2.1C664,841.8,662.3,841,661,841.2z M665,831.3
	c-1.5,0-3,0-4.4,0c-1.3,0-2.6,0.2-2.6-1.9c0-1.9,0.8-2.1,2.4-2.1c3.1,0.1,6.3,0.1,9.4,0c1.6,0,2.4,0.3,2.3,2.2
	c-0.1,1.6-0.8,1.9-2.1,1.8C668.3,831.3,666.6,831.3,665,831.3z M675.3,841.1c-1.7,0.5-3.6,0-5.4,0.1c-1.5,0.1-1.9-0.6-1.9-2.1
	c0-1.5,0.6-2,2-1.9c1.8,0.1,3.6,0,5.8,0c1.6,1.3,5.9-2.3,5.9,1.8C681.8,843.5,677.5,840.5,675.3,841.1z M679.1,831.3
	c-1.3-0.2-3,0.7-3.1-1.8c-0.1-2.3,1.2-2.3,2.7-2.1c1.4,0.1,3.4-0.8,3.4,2C682,831.9,680.3,831.2,679.1,831.3z M648,789
	c-41.4,0-75,33.6-75,75c0,41.4,33.6,75,75,75s75-33.6,75-75C723,822.6,689.4,789,648,789z M680.1,910.5c-12-0.3-24-0.1-36-0.1
	s-24-0.3-36,0.1c-4.5,0.2-4.5-1.8-3.8-4.9c1.4-6.6,5.7-11,11.6-13.9c3.9-1.9,7.9-3.5,11.7-5.4c3.2-1.5,4.8-3.8,4.3-7.5
	c-0.6-5.1-2.8-9.5-5.6-13.6c-1.5-2.3-3.3-4.8-2.2-7.2c2.1-4.5,0.5-8.6,0.1-12.9c-1-10.1,3.8-17.4,12.8-19.4c3.3-0.8,5-0.1,4.9,3.7
	c-0.2,5.4,0,10.9-0.1,16.3c0,4.6,2.2,7.2,6.9,7.2c3.9,0,5.4,2,5.1,5.6c-0.2,3,0.3,5.5,3.9,6.4c3.3,0.8,1.9,3.1,1.3,5.2
	c-0.8,3-3.5,4.9-3.4,8.5c0.1,3.9,1.4,6.3,4.7,7.8c4.3,2.1,8.8,3.9,13,6.1c5.5,2.8,8.8,7.3,10.2,13.3
	C684.5,909.1,684,910.6,680.1,910.5z M691.9,843.8c-0.1,5.1-2.1,7.2-7.2,7.3c-2,0.1-4,0.1-6,0c-5.5-0.4-10.8-0.6-13.4,5.8
	c-0.5,1.3-2.4,2.2-3.8,3.1c-1.4,0.8-3.1,1.6-4.7,0.5c-1.6-1.2-0.5-2.7-0.2-4c0.6-3.3,0.4-5.7-4.2-5.4c-4.2,0.3-6.4-2.3-6.4-6.4
	c-0.1-6.9-0.1-13.8,0-20.7c0.1-4.2,2.4-6.3,6.6-6.4c5.5,0,11,0,16.4,0c5,0,10,0,14.9,0c5.8,0,7.9,2,7.9,7.5
	C692,831.3,692,837.5,691.9,843.8z M684.6,821.4c-10.5,0.1-20.9,0.1-31.4,0c-2.4,0-3.2,1-3.2,3.3c0.1,6.4,0.1,12.8,0,19.2
	c0,2.3,1,3.6,3.3,3.1c6.4-1.2,7.8,2.4,8.2,8.5c3.7-11.4,12.8-8.1,20.4-8.4c0.8,0,1.7-0.1,2.5,0c2.5,0.2,3.6-0.8,3.6-3.4
	c-0.1-6.2-0.1-12.5,0-18.7C688,822.6,687.2,821.4,684.6,821.4z M661,841.2c-1.3-0.2-3,0.6-3.1-1.8c-0.1-2.8,1.8-2,3.3-2.1
	c1.5-0.1,2.9-0.3,2.8,2.1C664,841.8,662.3,841,661,841.2z M665,831.3c-1.5,0-3,0-4.4,0c-1.3,0-2.6,0.2-2.6-1.9
	c0-1.9,0.8-2.1,2.4-2.1c3.1,0.1,6.3,0.1,9.4,0c1.6,0,2.4,0.3,2.3,2.2c-0.1,1.6-0.8,1.9-2.1,1.8C668.3,831.3,666.6,831.3,665,831.3z
	 M675.3,841.1c-1.7,0.5-3.6,0-5.4,0.1c-1.5,0.1-1.9-0.6-1.9-2.1c0-1.5,0.6-2,2-1.9c1.8,0.1,3.6,0,5.8,0c1.6,1.3,5.9-2.3,5.9,1.8
	C681.8,843.5,677.5,840.5,675.3,841.1z M679.1,831.3c-1.3-0.2-3,0.7-3.1-1.8c-0.1-2.3,1.2-2.3,2.7-2.1c1.4,0.1,3.4-0.8,3.4,2
	C682,831.9,680.3,831.2,679.1,831.3z M688,825c0-2.4-0.8-3.6-3.4-3.6c-10.5,0.1-20.9,0.1-31.4,0c-2.4,0-3.2,1-3.2,3.3
	c0.1,6.4,0.1,12.8,0,19.2c0,2.3,1,3.6,3.3,3.1c6.4-1.2,7.8,2.4,8.2,8.5c3.7-11.4,12.8-8.1,20.4-8.4c0.8,0,1.7-0.1,2.5,0
	c2.5,0.2,3.6-0.8,3.6-3.4C687.9,837.5,687.9,831.3,688,825z M661,841.2c-1.3-0.2-3,0.6-3.1-1.8c-0.1-2.8,1.8-2,3.3-2.1
	c1.5-0.1,2.9-0.3,2.8,2.1C664,841.8,662.3,841,661,841.2z M665,831.3c-1.5,0-3,0-4.4,0c-1.3,0-2.6,0.2-2.6-1.9
	c0-1.9,0.8-2.1,2.4-2.1c3.1,0.1,6.3,0.1,9.4,0c1.6,0,2.4,0.3,2.3,2.2c-0.1,1.6-0.8,1.9-2.1,1.8C668.3,831.3,666.6,831.3,665,831.3z
	 M675.3,841.1c-1.7,0.5-3.6,0-5.4,0.1c-1.5,0.1-1.9-0.6-1.9-2.1c0-1.5,0.6-2,2-1.9c1.8,0.1,3.6,0,5.8,0c1.6,1.3,5.9-2.3,5.9,1.8
	C681.8,843.5,677.5,840.5,675.3,841.1z M679.1,831.3c-1.3-0.2-3,0.7-3.1-1.8c-0.1-2.3,1.2-2.3,2.7-2.1c1.4,0.1,3.4-0.8,3.4,2
	C682,831.9,680.3,831.2,679.1,831.3z M688,825c0-2.4-0.8-3.6-3.4-3.6c-10.5,0.1-20.9,0.1-31.4,0c-2.4,0-3.2,1-3.2,3.3
	c0.1,6.4,0.1,12.8,0,19.2c0,2.3,1,3.6,3.3,3.1c6.4-1.2,7.8,2.4,8.2,8.5c3.7-11.4,12.8-8.1,20.4-8.4c0.8,0,1.7-0.1,2.5,0
	c2.5,0.2,3.6-0.8,3.6-3.4C687.9,837.5,687.9,831.3,688,825z M661,841.2c-1.3-0.2-3,0.6-3.1-1.8c-0.1-2.8,1.8-2,3.3-2.1
	c1.5-0.1,2.9-0.3,2.8,2.1C664,841.8,662.3,841,661,841.2z M665,831.3c-1.5,0-3,0-4.4,0c-1.3,0-2.6,0.2-2.6-1.9
	c0-1.9,0.8-2.1,2.4-2.1c3.1,0.1,6.3,0.1,9.4,0c1.6,0,2.4,0.3,2.3,2.2c-0.1,1.6-0.8,1.9-2.1,1.8C668.3,831.3,666.6,831.3,665,831.3z
	 M675.3,841.1c-1.7,0.5-3.6,0-5.4,0.1c-1.5,0.1-1.9-0.6-1.9-2.1c0-1.5,0.6-2,2-1.9c1.8,0.1,3.6,0,5.8,0c1.6,1.3,5.9-2.3,5.9,1.8
	C681.8,843.5,677.5,840.5,675.3,841.1z M679.1,831.3c-1.3-0.2-3,0.7-3.1-1.8c-0.1-2.3,1.2-2.3,2.7-2.1c1.4,0.1,3.4-0.8,3.4,2
	C682,831.9,680.3,831.2,679.1,831.3z M688,825c0-2.4-0.8-3.6-3.4-3.6c-10.5,0.1-20.9,0.1-31.4,0c-2.4,0-3.2,1-3.2,3.3
	c0.1,6.4,0.1,12.8,0,19.2c0,2.3,1,3.6,3.3,3.1c6.4-1.2,7.8,2.4,8.2,8.5c3.7-11.4,12.8-8.1,20.4-8.4c0.8,0,1.7-0.1,2.5,0
	c2.5,0.2,3.6-0.8,3.6-3.4C687.9,837.5,687.9,831.3,688,825z M661,841.2c-1.3-0.2-3,0.6-3.1-1.8c-0.1-2.8,1.8-2,3.3-2.1
	c1.5-0.1,2.9-0.3,2.8,2.1C664,841.8,662.3,841,661,841.2z M665,831.3c-1.5,0-3,0-4.4,0c-1.3,0-2.6,0.2-2.6-1.9
	c0-1.9,0.8-2.1,2.4-2.1c3.1,0.1,6.3,0.1,9.4,0c1.6,0,2.4,0.3,2.3,2.2c-0.1,1.6-0.8,1.9-2.1,1.8C668.3,831.3,666.6,831.3,665,831.3z
	 M675.3,841.1c-1.7,0.5-3.6,0-5.4,0.1c-1.5,0.1-1.9-0.6-1.9-2.1c0-1.5,0.6-2,2-1.9c1.8,0.1,3.6,0,5.8,0c1.6,1.3,5.9-2.3,5.9,1.8
	C681.8,843.5,677.5,840.5,675.3,841.1z M679.1,831.3c-1.3-0.2-3,0.7-3.1-1.8c-0.1-2.3,1.2-2.3,2.7-2.1c1.4,0.1,3.4-0.8,3.4,2
	C682,831.9,680.3,831.2,679.1,831.3z M688,825c0-2.4-0.8-3.6-3.4-3.6c-10.5,0.1-20.9,0.1-31.4,0c-2.4,0-3.2,1-3.2,3.3
	c0.1,6.4,0.1,12.8,0,19.2c0,2.3,1,3.6,3.3,3.1c6.4-1.2,7.8,2.4,8.2,8.5c3.7-11.4,12.8-8.1,20.4-8.4c0.8,0,1.7-0.1,2.5,0
	c2.5,0.2,3.6-0.8,3.6-3.4C687.9,837.5,687.9,831.3,688,825z M661,841.2c-1.3-0.2-3,0.6-3.1-1.8c-0.1-2.8,1.8-2,3.3-2.1
	c1.5-0.1,2.9-0.3,2.8,2.1C664,841.8,662.3,841,661,841.2z M665,831.3c-1.5,0-3,0-4.4,0c-1.3,0-2.6,0.2-2.6-1.9
	c0-1.9,0.8-2.1,2.4-2.1c3.1,0.1,6.3,0.1,9.4,0c1.6,0,2.4,0.3,2.3,2.2c-0.1,1.6-0.8,1.9-2.1,1.8C668.3,831.3,666.6,831.3,665,831.3z
	 M675.3,841.1c-1.7,0.5-3.6,0-5.4,0.1c-1.5,0.1-1.9-0.6-1.9-2.1c0-1.5,0.6-2,2-1.9c1.8,0.1,3.6,0,5.8,0c1.6,1.3,5.9-2.3,5.9,1.8
	C681.8,843.5,677.5,840.5,675.3,841.1z M679.1,831.3c-1.3-0.2-3,0.7-3.1-1.8c-0.1-2.3,1.2-2.3,2.7-2.1c1.4,0.1,3.4-0.8,3.4,2
	C682,831.9,680.3,831.2,679.1,831.3z"/>
<g>
	<path d="M688,825c0-2.4-0.8-3.6-3.4-3.6c-10.5,0.1-20.9,0.1-31.4,0c-2.4,0-3.2,1-3.2,3.3c0.1,6.4,0.1,12.8,0,19.2
		c0,2.3,1,3.6,3.3,3.1c6.4-1.2,7.8,2.4,8.2,8.5c3.7-11.4,12.8-8.1,20.4-8.4c0.8,0,1.7-0.1,2.5,0c2.5,0.2,3.6-0.8,3.6-3.4
		C687.9,837.5,687.9,831.3,688,825z M661,841.2c-1.3-0.2-3,0.6-3.1-1.8c-0.1-2.8,1.8-2,3.3-2.1c1.5-0.1,2.9-0.3,2.8,2.1
		C664,841.8,662.3,841,661,841.2z M665,831.3c-1.5,0-3,0-4.4,0c-1.3,0-2.6,0.2-2.6-1.9c0-1.9,0.8-2.1,2.4-2.1c3.1,0.1,6.3,0.1,9.4,0
		c1.6,0,2.4,0.3,2.3,2.2c-0.1,1.6-0.8,1.9-2.1,1.8C668.3,831.3,666.6,831.3,665,831.3z M675.3,841.1c-1.7,0.5-3.6,0-5.4,0.1
		c-1.5,0.1-1.9-0.6-1.9-2.1c0-1.5,0.6-2,2-1.9c1.8,0.1,3.6,0,5.8,0c1.6,1.3,5.9-2.3,5.9,1.8C681.8,843.5,677.5,840.5,675.3,841.1z
		 M679.1,831.3c-1.3-0.2-3,0.7-3.1-1.8c-0.1-2.3,1.2-2.3,2.7-2.1c1.4,0.1,3.4-0.8,3.4,2C682,831.9,680.3,831.2,679.1,831.3z"/>
	<path class="st0" d="M688,825c0-2.4-0.8-3.6-3.4-3.6c-10.5,0.1-20.9,0.1-31.4,0c-2.4,0-3.2,1-3.2,3.3c0.1,6.4,0.1,12.8,0,19.2
		c0,2.3,1,3.6,3.3,3.1c6.4-1.2,7.8,2.4,8.2,8.5c3.7-11.4,12.8-8.1,20.4-8.4c0.8,0,1.7-0.1,2.5,0c2.5,0.2,3.6-0.8,3.6-3.4
		C687.9,837.5,687.9,831.3,688,825z M661,841.2c-1.3-0.2-3,0.6-3.1-1.8c-0.1-2.8,1.8-2,3.3-2.1c1.5-0.1,2.9-0.3,2.8,2.1
		C664,841.8,662.3,841,661,841.2z M665,831.3c-1.5,0-3,0-4.4,0c-1.3,0-2.6,0.2-2.6-1.9c0-1.9,0.8-2.1,2.4-2.1c3.1,0.1,6.3,0.1,9.4,0
		c1.6,0,2.4,0.3,2.3,2.2c-0.1,1.6-0.8,1.9-2.1,1.8C668.3,831.3,666.6,831.3,665,831.3z M675.3,841.1c-1.7,0.5-3.6,0-5.4,0.1
		c-1.5,0.1-1.9-0.6-1.9-2.1c0-1.5,0.6-2,2-1.9c1.8,0.1,3.6,0,5.8,0c1.6,1.3,5.9-2.3,5.9,1.8C681.8,843.5,677.5,840.5,675.3,841.1z
		 M679.1,831.3c-1.3-0.2-3,0.7-3.1-1.8c-0.1-2.3,1.2-2.3,2.7-2.1c1.4,0.1,3.4-0.8,3.4,2C682,831.9,680.3,831.2,679.1,831.3z"/>
</g>
</svg>
