<svg id="Layer_1" data-name="Layer 1" xmlns="http://www.w3.org/2000/svg" viewBox="0 0 485.47 541.19"><defs><style>.cls-1{fill:#cb6608;}</style></defs><title>End to End Construction</title><path class="cls-1" d="M1087.62,404.43c2.61-.5,5.25-.86,7.86-1.37,7.8-1.52,11.15-5.49,11.23-13.43.07-6.32,0-12.64,0-19,0-18.27-.7-19.11-18.51-22.33-6.23-1.13-8.27-5.9-4.73-11.07,1.6-2.33,3.25-4.63,4.79-7,3.82-5.88,3.42-10.75-1.43-15.74-4.64-4.78-9.4-9.44-14.12-14.13-13.28-13.22-13.42-13.23-28.78-2.92-5.27,3.54-10,1.66-11.17-4.46-.58-2.93-1.13-5.87-1.78-8.79-1.36-6.14-5.31-9.63-11.51-9.71q-15-.21-30,0c-5.92.09-10,3.62-11.32,9.38-.65,2.92-1,5.9-1.6,8.83-1.31,6.48-6,8.36-11.47,4.65-2.48-1.68-4.9-3.46-7.44-5-5.16-3.18-10.27-2.74-14.59,1.47Q932.35,304.29,921.9,315c-4.2,4.32-4.59,9.42-1.36,14.58,1.85,3,3.85,5.83,5.91,8.64,1.18,1.61,1.23,2.93.75,5-1.54,6.49-7.13,5.13-11.26,6-10.57,2.21-12.89,4.43-13.14,15.16-.08,3.2-1.27,3.91-4.16,3.83-6.33-.16-12.67-.3-19,.05-3.55.19-4.75-1.11-5.72-4.35-5.33-18-21-29.55-39.87-29.63-12-.05-24,0-36,0-12.33,0-24.66-.07-37,0-18.08.11-33.76,11.46-39,28.69-1.24,4.07-2.92,5.23-7.09,5.32-52.49,1.07-95.06,45.83-93.68,98.27A96.64,96.64,0,0,0,718,561c23.49.07,47,.1,70.48-.08,3.7,0,5.39.78,6.53,4.6,5.3,17.73,21.06,29.29,39.58,29.35,24.33.07,48.65.24,73-.06,16.77-.21,30.44-7.7,36.54-23.17,3.92-9.91,9.07-11.25,18.07-10.79,19,1,38-1.12,56.92,1,37.58,4.23,67.37,35.53,69.8,72.76,2.53,38.86-22.19,73.45-59.19,83.18-12.46,3.28-25.1,2.58-37.74,2.74-2.65,0-2.68-1.79-3.23-3.54-6-19.22-21.19-30.31-41.45-30.33q-35.24,0-70.47,0c-19.85,0-35,11.28-40.81,30.37-.83,2.76-2,3.59-4.84,3.53-9.49-.18-19-.07-28.49-.07-8.13,0-8.13,0-9.58-8.09-8-44.38-52.4-76.11-96.83-69.36-50.24,7.63-78.87,52.45-74.44,95.29,5,48.57,53.27,85.19,101.34,75.73,37.08-7.3,63.38-33.62,70.09-70.75.92-5.13,2.79-6.23,7.58-6,9.64.4,19.32.28,29,0,3.68-.09,5.27.79,6.57,4.63,5.67,16.8,17.42,27.55,35.29,28.63a769.14,769.14,0,0,0,79.92.17c18.94-.82,31.24-11.92,37-29.87.91-2.82,2-3.54,4.78-3.54,8.32,0,16.64.2,25-.5,47-3.94,85.38-43.78,87.51-91.13a96.87,96.87,0,0,0-97-101.62c-18.66,0-37.32-.09-56,.07-3.3,0-4.83-.7-5.86-4.15-5.34-18-21-29.6-39.87-29.72q-36.24-.22-72.47,0c-18.93.13-34.32,11.69-39.78,29.82-1.05,3.5-2.73,4.05-5.93,4-21.49-.13-43-.05-64.47-.08a122.26,122.26,0,0,1-18.43-.94c-40.61-6.21-69.7-43.07-66.86-84.92,2.7-39.85,36.9-72.39,76.87-73.34,3.51-.09,4.74,1,5.8,4.26,5.7,17.34,17.73,28,36,29.1,26.1,1.54,52.31,1.2,78.43.19,19.32-.75,32-11.65,37.86-30.14.89-2.83,2.27-3.48,5-3.41,6.16.18,12.34.32,18.49,0,4.21-.24,5.34,1.19,5.23,5.3-.19,7.55,3.14,11.28,10.52,12.79,2.6.54,5.24.9,7.86,1.38,6.16,1.15,8.1,5.91,4.53,11.14-1.59,2.34-3.25,4.63-4.79,7-3.78,5.86-3.35,10.79,1.49,15.74,4.65,4.77,9.41,9.43,14.13,14.13,13.08,13.06,13.55,13.11,28.83,2.82,5.38-3.63,9.83-1.89,11.12,4.39.57,2.77,1,5.56,1.54,8.33,1.31,6.67,5.32,10.14,12.1,10.24s13.66,0,20.49,0c18,0,18.61-.47,22.1-18.15,1.32-6.71,5.65-8.57,11.21-4.82,2.48,1.67,4.91,3.44,7.45,5,5.2,3.23,10.25,2.92,14.61-1.28q10.79-10.39,21.22-21.16c4.46-4.59,4.8-9.55,1.35-15-1.7-2.66-3.59-5.21-5.36-7.82C1080.07,410.39,1082.1,405.5,1087.62,404.43Zm-380,394.15c-38.2-.11-69.53-31.63-69.42-69.85a69.79,69.79,0,0,1,139.57.27C777.83,767.4,746.28,798.69,707.64,798.58ZM948.9,754.26q-36.67.69-73.38,0C861,754,850.8,742.55,851.17,728.14c.35-14.16,10.9-24.4,25.41-24.5,12-.09,24,0,35.94,0,11.65,0,23.29,0,34.94,0,14.84.08,25.35,10,25.69,24.08C973.51,742.85,963.88,754,948.9,754.26Zm-114.06-227q36.18-.27,72.38,0c14.44.12,24.81,11.2,24.73,25.76-.09,14.21-10.68,24.85-25,24.94-12.15.08-24.29,0-36.44,0-11.81,0-23.63,0-35.44,0-14.43-.07-25-10.51-25.15-24.67C809.84,538.33,820.09,527.37,834.84,527.26Zm-1.51-125.37c-11,.26-22,.06-33,.06-12.65,0-25.31.17-38-.06-12.28-.22-21.23-6.83-24.51-17.56s.27-22.14,9-28.54a24.28,24.28,0,0,1,14.94-4.7c12,.07,24,0,36,0,11.65,0,23.3,0,35,0,15.23.06,26,10.26,26.17,24.75C859.12,390.71,848.66,401.53,833.33,401.89Zm247.79-13.52c-6.95,1-10.32,4.4-13.64,10.88-5.41,10.58-5,19,3.08,27.35,1,1,2,2.27.34,3.83-4.08,3.92-8,8-12.08,11.94a13.24,13.24,0,0,1-1.66,1.19c-1.08-.64-2.09-1.19-3.05-1.83a36.49,36.49,0,0,1-4.51-3.12c-5.28-4.75-10.79-5.39-16.73-1.29a5.59,5.59,0,0,1-2.28,1c-10.45,1.64-14.1,8.74-14.51,18.25-.17,3.89-1.9,5.34-5.63,4.72a2.77,2.77,0,0,0-.5,0c-5,0-10.82,1.53-14.75-.53s-2.53-8.69-3.8-13.23a9.1,9.1,0,0,0-6.49-6.88,53.79,53.79,0,0,1-11.51-4.72c-4-2.31-7.47-1.63-11.14.84-3.41,2.3-6.74,6.87-10.38,6.08-3.46-.74-6.17-5.19-9.12-8.09-5.8-5.71-6.12-6-1.08-12.42,4.82-6.14,4.31-11.37,1.81-18.69-3.59-10.49-9.37-15.79-20.17-16-3-.06-3.94-1.48-3.79-4.41a123.34,123.34,0,0,0,0-13.46c-.2-3.26,1.13-4.1,4.15-4.7,15.7-3.16,12.94-1.33,19.23-14.9,4-8.64,3.45-15.07-2.73-21.56-3.15-3.3-3-5.84.7-8.81s6.41-8.38,10.5-9.63c4.41-1.35,8,4.29,12,6.6,3.23,1.82,6.23,2,9.44.25a47.91,47.91,0,0,1,11-4.66c5-1.3,7.31-4.55,8.12-9.52,1.84-11.4,1.95-11.38,13.4-11.38,10,0,10.18,0,11.52,9.52.87,6.27,3.31,10.6,10,11.87a16.41,16.41,0,0,1,5.95,2.48c6.19,4.16,11.5,3.12,17.23-1.35,6.94-5.4,7.27-5.12,13.3,1.08,2.88,2.95,7.88,5.4,8,9,.11,3.26-3.77,6.73-6.11,9.95-2.75,3.79-3,7.45-.72,11.6a51.48,51.48,0,0,1,4.21,10.09c1.39,4.74,4.23,7,9.08,7.93,12,2.24,12,2.4,12,14.58C1089.78,386.81,1089.83,387.11,1081.12,388.37Z" transform="translate(-621.28 -274.42)"/><path class="cls-1" d="M701.87,761.83c-2.75.14-4.84-1.1-6.71-2.89-9.65-9.19-19.35-18.32-28.92-27.57-4-3.9-4.24-8.84-.86-12.39s8.51-3.48,12.5.21c6.48,6,13.11,11.85,19.15,18.26,3.55,3.78,5.3,2.95,8.26-.57,10.39-12.36,21.13-24.42,31.7-36.63,2.42-2.79,5.13-4.78,9.07-4,7,1.47,9,8.88,4,14.75-9,10.48-18.11,20.87-27.18,31.3-4.58,5.27-9.18,10.54-13.75,15.83C707.16,760.41,705,762.08,701.87,761.83Z" transform="translate(-621.28 -274.42)"/><path class="cls-1" d="M843.73,561.05c-5.24,0-8.92-3.58-8.8-8.61a8.82,8.82,0,0,1,17.63.44C852.45,557.54,848.67,561,843.73,561.05Z" transform="translate(-621.28 -274.42)"/><path class="cls-1" d="M870.77,544.15a8.8,8.8,0,0,1,8.93,8.26,8.69,8.69,0,0,1-17.36.47A8.71,8.71,0,0,1,870.77,544.15Z" transform="translate(-621.28 -274.42)"/><path class="cls-1" d="M889.49,552.53a8.61,8.61,0,0,1,8.74-8.38,8.8,8.8,0,0,1,8.57,8.62,8.62,8.62,0,0,1-8.82,8.28A8.41,8.41,0,0,1,889.49,552.53Z" transform="translate(-621.28 -274.42)"/><path class="cls-1" d="M806.48,376.58a8.7,8.7,0,0,1-17.4-.24c.06-4.75,3.81-8.23,8.83-8.19A8.29,8.29,0,0,1,806.48,376.58Z" transform="translate(-621.28 -274.42)"/><path class="cls-1" d="M825.09,368.15a8.43,8.43,0,0,1,8.55,8.52,8.76,8.76,0,0,1-17.51-.42C816.28,371.5,820.07,368.07,825.09,368.15Z" transform="translate(-621.28 -274.42)"/><path class="cls-1" d="M770.85,368.15c5,.05,8.54,3.56,8.46,8.45a8.48,8.48,0,0,1-8.77,8.34A8.62,8.62,0,0,1,762,376.3C762.11,371.53,765.82,368.1,770.85,368.15Z" transform="translate(-621.28 -274.42)"/><path class="cls-1" d="M912,720.55c5.27-.07,9.06,3.48,9,8.44a8.69,8.69,0,0,1-8.68,8.45,8.84,8.84,0,0,1-9.08-8.6A8.58,8.58,0,0,1,912,720.55Z" transform="translate(-621.28 -274.42)"/><path class="cls-1" d="M893.93,728.77a8.72,8.72,0,0,1-8.5,8.66,8.46,8.46,0,0,1-8.65-8.38,8.12,8.12,0,0,1,8.39-8.49A8.32,8.32,0,0,1,893.93,728.77Z" transform="translate(-621.28 -274.42)"/><path class="cls-1" d="M948,729.05a8.56,8.56,0,0,1-17.11-.28,8.56,8.56,0,0,1,17.11.28Z" transform="translate(-621.28 -274.42)"/><path class="cls-1" d="M1006.39,326.35c-28.7-.49-51.35,21-51.81,49.27a49.82,49.82,0,0,0,48.84,50.71c28.13.47,51.08-21.49,51.44-49.24C1055.21,349.88,1033.17,326.8,1006.39,326.35Zm-1.59,83.1a33.09,33.09,0,1,1,33.11-33.37A33.15,33.15,0,0,1,1004.8,409.45Z" transform="translate(-621.28 -274.42)"/></svg>