<svg id="Layer_1" data-name="Layer 1" xmlns="http://www.w3.org/2000/svg" viewBox="0 0 51.28 51.28"><defs><style>.cls-1{fill:#ffca05;}.cls-2{fill:#fdbc11;}.cls-3{fill:#efa317;}.cls-4{fill:#ffe286;}.cls-5{fill:#ffeec0;}.cls-6{fill:#fff8ea;}.cls-7{fill:#cf8017;}</style></defs><title>Gold</title><polygon class="cls-1" points="50.89 15.17 39.47 19.92 31.36 11.82 36.11 0.38 50.89 15.17"/><polygon class="cls-2" points="50.9 15.17 50.9 36.11 39.48 31.37 39.48 19.92 50.9 15.17"/><polygon class="cls-3" points="50.89 36.11 36.11 50.91 31.36 39.47 39.47 31.37 50.89 36.11"/><polygon class="cls-2" points="36.11 50.91 15.18 50.91 19.91 39.47 31.36 39.47 36.11 50.91"/><polygon class="cls-1" points="19.91 39.47 15.18 50.91 0.38 36.11 11.82 31.37 19.91 39.47"/><polygon class="cls-4" points="11.82 19.92 11.82 31.37 0.38 36.11 0.38 15.17 11.82 19.92"/><polygon class="cls-5" points="19.91 11.82 11.82 19.92 0.38 15.17 15.18 0.38 19.91 11.82"/><polygon class="cls-4" points="36.11 0.38 31.36 11.82 19.91 11.82 15.18 0.38 36.11 0.38"/><polygon class="cls-5" points="39.47 19.92 39.47 31.37 31.36 39.47 19.91 39.47 11.82 31.37 11.82 19.92 19.91 11.82 31.36 11.82 39.47 19.92"/><polygon class="cls-6" points="30.83 13.08 13.08 30.85 13.08 20.45 20.45 13.08 30.83 13.08"/><path class="cls-3" d="M888.33,637.92s1.21,13.92-.58,18.25c-2,4.79-9.88,12.66-14.66,14.66-4.47,1.87-19.55,1.39-19.55,1.39l-14.2-14-.6.25,14.8,14.79h20.94l14.79-14.79V637.54Z" transform="translate(-838.36 -622.36)"/><path class="cls-1" d="M877.7,642v11.47l-8.1,8.08H858.16l-.94-.94s8.17.66,10.81-.43,7-5.45,8.13-8.1.61-11,.61-11Z" transform="translate(-838.36 -622.36)"/><path class="cls-5" d="M853.54,622.73l-14.8,14.81v20.93l1.19-.48s-1.16-14.23.68-18.66c2-4.84,10-12.81,14.81-14.81C859.86,622.68,874,624,874,624l.53-1.26Z" transform="translate(-838.36 -622.36)"/><polygon class="cls-6" points="19.56 11.96 15.18 0.38 20.26 11.67 19.56 11.96"/><polygon class="cls-6" points="31.02 11.67 36.11 0.38 31.72 11.96 31.02 11.67"/><polygon class="cls-6" points="39.32 19.57 50.9 15.18 39.61 20.27 39.32 19.57"/><polygon class="cls-6" points="39.61 31.02 50.9 36.1 39.32 31.72 39.61 31.02"/><polygon class="cls-6" points="31.72 39.32 36.11 50.9 31.02 39.61 31.72 39.32"/><polygon class="cls-6" points="20.26 39.61 15.18 50.9 19.56 39.32 20.26 39.61"/><polygon class="cls-6" points="11.96 31.72 0.38 36.1 11.67 31.02 11.96 31.72"/><polygon class="cls-6" points="11.67 20.27 0.38 15.18 11.96 19.57 11.67 20.27"/><path class="cls-6" d="M869.88,662.2H858.11l-8.32-8.31V642.12l8.32-8.33h11.77l8.33,8.33v11.77Zm-11.45-.76h11.14l7.87-7.87V642.43l-7.87-7.88H858.43l-7.87,7.88v11.14Z" transform="translate(-838.36 -622.36)"/><path class="cls-7" d="M874.62,673.64H853.38l-15-15V637.38l15-15h21.24l15,15v21.24Zm-20.93-.76h20.62l14.57-14.57V637.69l-14.57-14.57H853.69l-14.57,14.57v20.62Z" transform="translate(-838.36 -622.36)"/></svg>