<svg id="Layer_1" data-name="Layer 1" xmlns="http://www.w3.org/2000/svg" viewBox="0 0 316.27 247.36"><defs><style>.cls-1{fill:#cb6608;}</style></defs><title>Inhouse End to end team</title><path class="cls-1" d="M757.58,577l64.12-37.81c7.48-4.42,15-8.83,22.37-13.39,2.57-1.59,4.72-1.84,7.44-.22,16,9.48,32,18.79,48,28.21q37.77,22.22,75.5,44.5c9.8,5.78,19.57,11.63,29.45,17.28,2.11,1.2,2.23,2.21,1.07,4.07q-3.55,5.67-6.87,11.48c-1.2,2.09-2.06,2.78-4.64,1.2-13.27-8.09-26.73-15.86-40.13-23.73q-22.6-13.27-45.23-26.53-29.15-17.12-58.26-34.26a4,4,0,0,0-4.65.06c-16.08,9.52-32.24,18.91-48.35,28.37q-41.93,24.64-83.82,49.33c-4,2.38-8.1,4.73-12.07,7.21-1.45.91-2.22.84-3.1-.71q-3.83-6.72-7.9-13.28c-.95-1.52-.56-2.19.84-3,10.59-6.19,21.1-12.54,31.74-18.65,3-1.7,4.67-3.3,4.53-7.25-.39-11.13-.14-22.29-.14-33.44,9.19-.63,18.4-.07,27.59-.29,2.11,0,2,1.27,2,2.7,0,4.86,0,9.71,0,14.57C757.18,574.6,756.68,575.9,757.58,577Z" transform="translate(-690.03 -524.48)"/><path class="cls-1" d="M757.58,577c-1.62-.26-.69-1.49-.71-2.18-.09-5.35-.07-10.69,0-16,0-1.52-.09-2.63-2.11-2.6-9.07.14-18.14.18-27.21.25a2.91,2.91,0,0,1,2.42-.66c8.2,0,16.4.06,24.6,0,2.27,0,3.06.73,3,3C757.46,564.82,757.56,570.91,757.58,577Z" transform="translate(-690.03 -524.48)"/><path class="cls-1" d="M889.64,656.22V643.53A27.08,27.08,0,0,1,889.64,656.22Z" transform="translate(-690.03 -524.48)"/><path class="cls-1" d="M853.48,603.63h-9.7A16.06,16.06,0,0,1,853.48,603.63Z" transform="translate(-690.03 -524.48)"/><path class="cls-1" d="M764.06,761.27q0,3.71,0,7.41A10.62,10.62,0,0,1,764.06,761.27Z" transform="translate(-690.03 -524.48)"/><path class="cls-1" d="M761.29,673.45c.7,1.95.4,4,.55,6C760.69,677.54,761.51,675.45,761.29,673.45Z" transform="translate(-690.03 -524.48)"/><path class="cls-1" d="M740.14,723.76c-.06,2.09.27,4.21-.54,6.24C739.74,727.91,738.9,725.75,740.14,723.76Z" transform="translate(-690.03 -524.48)"/><path class="cls-1" d="M807.56,640.54a7.6,7.6,0,0,1-.52,3.8C807.14,643.06,806.61,641.7,807.56,640.54Z" transform="translate(-690.03 -524.48)"/><path class="cls-1" d="M783.86,648l-3.8.52C781.22,647.6,782.58,648.13,783.86,648Z" transform="translate(-690.03 -524.48)"/><path class="cls-1" d="M789.73,648.59l-3.94-.52C787.12,648.13,788.53,647.56,789.73,648.59Z" transform="translate(-690.03 -524.48)"/><path class="cls-1" d="M911.34,648a8.84,8.84,0,0,1-3.81.52C908.69,647.6,910.06,648.13,911.34,648Z" transform="translate(-690.03 -524.48)"/><path class="cls-1" d="M917.21,648.59l-3.87-.54C914.65,648.13,916,647.57,917.21,648.59Z" transform="translate(-690.03 -524.48)"/><path class="cls-1" d="M761.84,668.28a8,8,0,0,1-.52,3.86C761.4,670.84,760.85,669.46,761.84,668.28Z" transform="translate(-690.03 -524.48)"/><path class="cls-1" d="M764.86,749.26a8.37,8.37,0,0,1-.53,3.93C764.4,751.87,763.83,750.45,764.86,749.26Z" transform="translate(-690.03 -524.48)"/><path class="cls-1" d="M943.35,704.71A85.88,85.88,0,0,0,927.42,699c-1.68-.43-2.31-.88-.8-2.29,5.86-5.48,7.67-12.71,8.76-20.26l.06-4.43c-1.26-11.57-5.88-20.51-18.23-23.45-1.24-.52-2.65.18-3.87-.54l-2,0c-1.19.76-2.58.06-3.81.52-2.33.69-4.74,1-7,2.22-7.33,3.92-10,10.65-11.23,18.25,0,3.24,0,6.47,0,9.7,1.12,6.69,2.69,13.17,8.15,17.9,1.8,1.57.24,2-.92,2.32-4.29,1.39-8.61,2.71-12.89,4.11-1.23.4-2.21,1.55-3.72,1.06-3.59-1.18-7.19-2.3-10.79-3.44a4.22,4.22,0,0,1,.07-4.69c3.21-2.65,6.53-5.09,9.08-8.55,6.87-9.32,9.67-20,11.31-31.21a74.69,74.69,0,0,0,0-12.69c-2.83-22.06-13.35-36.7-36.16-39.9a43.1,43.1,0,0,0-9.7,0c-10.16,1.21-19.4,4.38-26.21,12.53-5.9,7.06-8.75,15.41-10,24.39-.46,1.23.24,2.61-.52,3.8v11.07a2.28,2.28,0,0,1,.28.67,8.28,8.28,0,0,1,.28,3.14c.4,2.08.72,4.18,1.23,6.23,2.91,11.89,7.56,22.74,18.17,30a2.2,2.2,0,0,1,1.13,1.8c.09,2.08.23,3.83-2.7,4.3-3.54.56-7.35,3.17-10.37,2.36-5.66-1.5-11.25-3.72-17-5.73,14.27-13.12,13.86-44.65-8.34-49.57-1.27-.5-2.69.14-3.94-.52l-1.93,0c-1.19.76-2.58.06-3.8.52-9.84,1.54-16.08,7.44-18.22,19.73-.49,1.24.2,2.65-.52,3.86l0,1.31c.89,1.93,0,4,.55,6,.93,7.17,3.44,13.58,9.2,18.7l-11.18,3.63c-10.82,3.51-18.83,9.54-19.72,22-.64,2,.22,4.21-.54,6.24.07.61.19,1.22.2,1.84.1,5.63.61,6.13,6.39,6.14,6,0,11.93,0,17.9,0,1.76,0,3.25.3,2.38,2.4-1.2,2.89-1,5.95-1.61,8.9-.51,1.26.14,2.69-.53,3.93l-.27,8.08a35.3,35.3,0,0,0,0,7.41c.21,1.53.56,3,2.47,3.16H926.23c1.49,0,3-.14,4.48-.22,3.5-3.39,1.66-7.8,2.23-11.74a6.5,6.5,0,0,1-.36-2.08,33.12,33.12,0,0,1-.16-4.78h0c-.72-4-1.23-8-2.22-12-.68-2.7.17-3.15,2.62-3.1,6,.14,12-.08,18,.1,2.78.09,4.85-.67,6.27-3.07l0-6.71C956.65,718,953.21,709.47,943.35,704.71ZM769,729.42c-6-.07-12-.09-18,0-1.93,0-2.6-.46-2.46-2.55.45-6.93,3.23-12.17,9.85-15a126.56,126.56,0,0,1,17.35-5.79c2.52-.68,5.07-1.44,5-4.6,0-3.41,1.56-7.45-2.85-9.62a10.58,10.58,0,0,1-4.72-5.16,27.3,27.3,0,0,1-2.4-18.19c1.77-8.25,6.78-11.93,15.35-11.48,6.9.36,11.77,5.36,12.65,13A29,29,0,0,1,795.93,687c-.83,1.59-1.76,3.35-3.3,4-5.37,2.21-4.34,6.69-4.13,10.83.12,2.29,1.88,3.36,4,3.94,2.95.83,5.88,1.69,9.42,2.71-4.83,2.23-9.11,4.1-13.31,6.15a41.51,41.51,0,0,0-16.09,13.1A3.78,3.78,0,0,1,769,729.42Zm151.82,34.12c-15.11-.14-30.23-.07-45.34-.07h-27c-24,0-48-.05-72,.07-2.94,0-3.93-.75-3.68-3.7.4-4.6.58-9.21,1.31-13.78,2-12.44,9.76-20.08,20.73-25.08,11.73-5.35,24.14-8.69,36.5-12.15,4.76-1.34,5.45-2.16,5.46-7a29.14,29.14,0,0,1,0-3.74c.65-4.86-1-7.82-5.57-10.48-7.88-4.62-11.05-12.9-13.32-21.34-2.95-10.94-3.31-21.94.22-32.83,5-15.54,17.33-22,32.62-21.19,19.63,1.08,27.86,15,29.73,29.52a58.69,58.69,0,0,1-6.91,37.2,23.26,23.26,0,0,1-10.24,10.08,5.24,5.24,0,0,0-3.34,5.29c.24,15.32-1.91,12.22,11.88,16.28,11.36,3.34,22.72,6.6,33.33,12.06s16.29,14,17.75,25.6c.5,4,.53,8,1,11.93C924.31,762.81,923.51,763.57,920.83,763.54Zm25.08-34.13c-6.12,0-12.24,0-18.36,0a2.85,2.85,0,0,1-2.63-1.08c-7-10-17.58-14.77-28.5-19a8,8,0,0,1-1.16-.92c3.47-1,6.42-1.87,9.38-2.69a4.64,4.64,0,0,0,3.76-4.86c.14-4.23-.31-7.45-4.46-10.42-7.55-5.4-8.24-22.73-2-29.52,6.7-7.28,20.21-4.57,23.41,4.89,2.61,7.71,1.52,15.24-2.49,22.32a7.12,7.12,0,0,1-3.09,3.19c-3.28,1.46-4,4.06-4,7.32.11,5.12.82,6.24,5.84,7.59a118,118,0,0,1,17,5.68c6.61,2.91,9.39,8.16,9.65,15.13C948.38,728.93,947.61,729.42,945.91,729.41Z" transform="translate(-690.03 -524.48)"/></svg>