<svg id="Layer_1" data-name="Layer 1" xmlns="http://www.w3.org/2000/svg" viewBox="0 0 381.5 315.57"><defs><style>.cls-1{fill:#cb6608;}</style></defs><title>Innovative design and Planning team</title><path class="cls-1" d="M816.16,800.62c-26.57-1-53.08-2.5-78.66-10.9-1.42-.46-2.84-.92-4.22-1.49-8.58-3.58-9.7-5.27-9.7-14.48,0-21.63-.16-43.26,0-64.89A69.67,69.67,0,0,1,769.06,644c3-1.13,4.86-1.28,7,1.78a54.26,54.26,0,0,0,20.82,17.44,5.72,5.72,0,0,1,3.59,5.24c1,9.25,2.42,18.45,3.67,27.67.17,1.31-.11,3.25,1.16,3.63,4.69,1.39,3.26,4.9,3,7.91-2.08,23.69-4.11,47.37-6.47,71-.37,3.74.29,6.43,3.07,8.8,4.29,3.66,8.5,7.4,12.74,11.1Z" transform="translate(-631.52 -485.05)"/><path class="cls-1" d="M831.69,800.33c4.77-5,8.64-9.36,12.81-13.4a8.4,8.4,0,0,0,2.67-7.54q-3.37-35.21-6.54-70.44c-.3-3.43-2.15-7.43,3-9.49,1-.4,1.17-3.29,1.41-5.07,1.15-8.72,2.28-17.45,3.25-26.2a5.6,5.6,0,0,1,3.49-4.89,57.44,57.44,0,0,0,21.48-18.16c1.53-2.14,2.89-2.4,5.37-1.59,25.64,8.37,45.84,34.62,46.33,61.51.45,24.43.08,48.86.24,73.29,0,4.09-2.35,6-5.29,7.67-9,5-18.93,7.17-28.85,9a336.25,336.25,0,0,1-56.48,5.4C834,800.47,833.4,800.41,831.69,800.33Z" transform="translate(-631.52 -485.05)"/><path class="cls-1" d="M834,613.63a170,170,0,0,1,4-33.1c.75-3.3,1.85-5.62,5.57-6.59a17.17,17.17,0,0,0,10.55-7.86c2.4-4,2-8.69-1-10.91-3.75-2.78-7.24-1.45-10.4,1.24a22,22,0,0,0-6.6,9.82c-1,3.06-3,4.1-5.86,4.17-2,.05-4,.24-6,.3-5.82.16-11.11-.19-13-7.44-.87-3.33-3.52-6-6.52-8s-6-2.46-8.83-.22-3.32,5.6-2,9c2,5.28,6.25,8.19,11.28,9.79a7.64,7.64,0,0,1,5.81,6.41,217.31,217.31,0,0,1,4.37,43.09c0,2.75-1,3.41-3.49,3.31-3.58-.14-7.67-.95-7.79,4.86,0,1.59-1.81,1.11-2.86,1a3.41,3.41,0,0,1-3.15-3.79c0-5-.18-10,0-15a7.33,7.33,0,0,0-3.38-7c-17.87-13.37-25.07-31.42-20.17-53,4.8-21.2,18.74-34.43,40.16-38.9,23.56-4.92,47,7.55,56.78,29.71a50.91,50.91,0,0,1-16.71,61.86c-3,2.16-4,4.28-3.81,7.77.27,4.64.05,9.31.06,14,0,2.52-1.07,4.09-3.67,4.49-2.78.43-2.71-1.53-3.06-3.37-.57-3-3.09-2.84-5.16-2.52-5.13.81-6.42-1.49-5.67-6.1C833.93,618.31,833.87,616,834,613.63Z" transform="translate(-631.52 -485.05)"/><path class="cls-1" d="M728.51,562.39A35.45,35.45,0,1,1,693,526.94,35.32,35.32,0,0,1,728.51,562.39Z" transform="translate(-631.52 -485.05)"/><path class="cls-1" d="M916.07,556.2a35.45,35.45,0,1,1,70.89.25,35.45,35.45,0,0,1-70.89-.25Z" transform="translate(-631.52 -485.05)"/><path class="cls-1" d="M684.68,699.48c-15.8.2-30.81-1.26-45.36-5.84-7.32-2.31-7.66-3-7.66-10.54,0-13.14-.4-26.3.13-39.43.7-17.54,9.55-30,25.42-37.47,2.61-1.23,4.34-1.08,6.17,1.54a25.58,25.58,0,0,0,10.27,8.52c3.26,1.49,4.33,3.64,4.42,6.87.07,2.32-.08,4.77.59,6.94,5.11,16.64,1.15,33.25-.25,49.81C677.77,687.41,676.79,694.51,684.68,699.48Z" transform="translate(-631.52 -485.05)"/><path class="cls-1" d="M959.8,693.23c9.54-5.59,6.7-14.09,6.06-22-.72-8.93-1.8-17.84-2.53-26.77-.35-4.28-.46-8.26,1.42-12.74,2.09-5,1.59-11.07,2-16.7a4.41,4.41,0,0,1,2.8-4.16,30.86,30.86,0,0,0,11.9-9.62c1.77-2.49,3.4-2.48,5.82-1.34,16.06,7.55,24.9,20.14,25.54,37.86.48,13.61-.13,27.25.21,40.87.12,4.57-1.83,6.64-5.64,8-9.1,3.36-18.6,4.86-28.17,5.93C973,693.32,966.81,694.05,959.8,693.23Z" transform="translate(-631.52 -485.05)"/><path class="cls-1" d="M944.17,693.5c-12.89.7-12.86.69-16.64-9.72a74.29,74.29,0,0,0-33.8-40.34c-2.9-1.66-3.86-3.44-3.62-6.64,1.29-17.34,10-29.47,25.56-36.85,2.35-1.11,4-1.25,5.82,1.31a26.45,26.45,0,0,0,10.19,8.59c2.78,1.36,3.76,3.35,4,6.17.38,4,.25,8.16,1.56,11.82,5.78,16.08.17,32-.79,47.85C936,683.11,937.23,688.51,944.17,693.5Z" transform="translate(-631.52 -485.05)"/><path class="cls-1" d="M700.89,699.1c8.14-4.56,8-11.42,6.84-19.12-1.5-10.35-2.07-20.82-3-31.25-.31-3.54-1-7,1.71-10.29,1.1-1.32.88-3.81,1.06-5.79.75-8.23.94-16.7,10.66-20.26,1-.37,1.75-1.51,2.57-2.33,5.61-5.61,5.64-5.68,12.53-1.67,12,7,18.75,17.5,21,31.1.49,3-.5,4.72-3,6.51a91,91,0,0,0-35.63,49c-1.14,3.77-2.65,5.12-6.39,4.81a54.62,54.62,0,0,0-7.33.31Z" transform="translate(-631.52 -485.05)"/><path class="cls-1" d="M824.34,700.8c9.28,0,9.24,0,10.08,9.25q3.11,34.22,6.34,68.42a5.71,5.71,0,0,1-1.51,4.93c-4.07,4.38-8.14,8.77-12,13.33-1.83,2.16-3.07,1.82-4.63-.14a19.15,19.15,0,0,0-3.44-3.58c-9.13-6.73-11.73-15.13-10-26.62,2.9-19.84,4.21-39.93,5.74-59.94.37-4.86,1.94-6.46,6.49-5.67A17.54,17.54,0,0,0,824.34,700.8Z" transform="translate(-631.52 -485.05)"/><path class="cls-1" d="M822.67,696.87c-4.14,0-8.29-.07-12.43,0-2.07.05-2.88-.65-3-2.81q-.79-12.15-2-24.27c-.25-2.73.61-3.52,3.29-3a75.4,75.4,0,0,0,30.59-.3c3.06-.65,3.32.4,3,2.85-1,8.21-2.08,16.43-2.93,24.66-.26,2.5-1.55,2.9-3.63,2.86C831.29,696.81,827,696.87,822.67,696.87Z" transform="translate(-631.52 -485.05)"/><path class="cls-1" d="M701.64,684.77c1.93,6.49-4.71,8.8-7.92,13a1.41,1.41,0,0,1-1.21.28c-2.22-.55-8.25-9.25-8-11.76,1.25-14.2,2.7-28.38,3.8-42.58.27-3.45,2.27-3,4.38-2.93,2.28.08,5-1,5.27,3.13.63,9.09,1.66,18.15,2.5,27.22C700.84,675.46,701.2,679.76,701.64,684.77Z" transform="translate(-631.52 -485.05)"/><path class="cls-1" d="M943.11,676.61c1.07-11.84,2.43-24.91,3.35-38,.31-4.32,2.77-3.75,5.63-4,3.38-.28,4,1.16,4.29,4.18,1.06,13.09,2.07,26.19,3.75,39.2.89,6.88-4.41,9.46-7.6,13.6-.44.56-1,.47-1.68.11C947,689.76,942.77,682.34,943.11,676.61Z" transform="translate(-631.52 -485.05)"/><path class="cls-1" d="M832.27,576.88a205.81,205.81,0,0,0-5,46.07c0,2-.39,3.12-2.72,3.07-2,0-2.47-1-2.54-2.74-.55-14.74-1.22-29.47-4.69-43.89-.48-2,.25-2.61,2.25-2.54C823.67,577,827.79,576.88,832.27,576.88Z" transform="translate(-631.52 -485.05)"/><path class="cls-1" d="M825.25,630.51h4.49c9,0,9.94,1.18,8.55,10.16-.28,1.77-1,2.17-2.55,2.17-7.3,0-14.62-.07-21.92,0-2.17,0-2.74-.83-2.9-2.91-.72-9.44-.79-9.44,8.85-9.44Z" transform="translate(-631.52 -485.05)"/><path class="cls-1" d="M941,618c-1.76-4.6.4-5.35,5.23-4.42a27.36,27.36,0,0,0,11.86-.45c2.35-.61,3.44-.08,3,2.59-.52,3.44-.89,6.9-1.26,10.36-.22,2.15-1.47,2.68-3.41,2.59-2.32-.11-4.64,0-7,0-7.91,0-7.91,0-8.36-8C941.08,620,941.05,619.36,941,618Z" transform="translate(-631.52 -485.05)"/><path class="cls-1" d="M693.47,634.52a39.09,39.09,0,0,0-4.38,0c-2.77.33-3.84-.81-3.85-3.58,0-3.12-1.61-7-.29-9.18,1.41-2.38,5.37.44,8.23-.11a4.09,4.09,0,0,1,1.48,0c2.57.44,6.75-2.2,7.27-.13.89,3.58.16,8-1.22,11.59C699.5,636.25,695.63,633.76,693.47,634.52Z" transform="translate(-631.52 -485.05)"/><path class="cls-1" d="M827.75,495.39c0,2.14.12,4.29,0,6.42s-1.16,3.48-3.47,3.29c-2-.17-2.88-1.5-2.91-3.36-.05-4.45-.07-8.9,0-13.35a3.06,3.06,0,0,1,3-3.33c2.31-.15,3.26,1.43,3.4,3.41.17,2.29,0,4.61,0,6.92Z" transform="translate(-631.52 -485.05)"/><path class="cls-1" d="M851.67,512.56c-2.67-.73-4.15-2.16-2.8-4.73,2.14-4.09,4.52-8.07,6.91-12,.8-1.33,2.1-2.2,3.78-1.51s2.56,2,1.94,3.53a72.07,72.07,0,0,1-7.79,13.72C853.31,512.13,852.29,512.27,851.67,512.56Z" transform="translate(-631.52 -485.05)"/><path class="cls-1" d="M800.56,508.67c-.09,2-.56,2.94-1.78,3.47a2.9,2.9,0,0,1-3.89-1.15c-2.5-4.07-4.85-8.23-7.18-12.4a2.76,2.76,0,0,1,.76-3.57c1.09-1,2.57-1.51,3.55-.43C795.91,498.89,798.26,504.14,800.56,508.67Z" transform="translate(-631.52 -485.05)"/><path class="cls-1" d="M767.08,519.17c3.79,2.32,8.46,5.05,13,8,1.13.75,1,2.34.26,3.62a2.49,2.49,0,0,1-3,1.22,58.24,58.24,0,0,1-14.08-8,2.36,2.36,0,0,1-.43-3.17C763.5,519.68,764.51,518.85,767.08,519.17Z" transform="translate(-631.52 -485.05)"/><path class="cls-1" d="M872.47,532.14c-2.12,0-3.18-.35-3.82-1.5-.73-1.33-.72-2.83.51-3.6,4.35-2.73,8.8-5.33,13.29-7.82a2.6,2.6,0,0,1,3.47,1.14,2.76,2.76,0,0,1-.16,3.69C881.54,527.59,876.48,529.73,872.47,532.14Z" transform="translate(-631.52 -485.05)"/></svg>