<svg id="Layer_1" data-name="Layer 1" xmlns="http://www.w3.org/2000/svg" viewBox="0 0 353.98 316.95"><defs><style>.cls-1{fill:#cb6608;}</style></defs><title>Money Safety</title><path class="cls-1" d="M766.72,733.37c0-14.74.06-29.49-.05-44.23,0-2.5.6-3.69,3.12-4.52,15.86-5.25,31.62-10.79,47.48-16,14.44-4.78,28.42-3.75,42,3.44,19.4,10.27,39,20.23,58.44,30.37,7.23,3.76,9.67,11.24,5.88,17.56a12.07,12.07,0,0,1-12.87,5.56c-19.79-4.1-39.56-8.26-59.35-12.36-6.13-1.27-10.9,1.6-12,7.08-1,5,2.51,9.67,8.39,10.91,11,2.32,22,4.57,33,6.82,9.17,1.87,18.31,3.92,27.52,5.5a30.29,30.29,0,0,0,35.53-29.74c0-2.17.64-3,2.53-3.8,23.59-9.51,47.14-19.14,70.73-28.64,8-3.23,17.21.33,21.54,8.07,4.45,7.94,2.64,17.91-4.51,23.23-15.51,11.58-31.12,23-46.69,34.52-19.38,14.32-39,28.36-58.09,43C909,805.78,886.82,810.2,862,803.93c-30.22-7.63-60.6-14.64-91-21.71-3.56-.83-4.4-2.29-4.35-5.74C766.84,762.11,766.72,747.74,766.72,733.37Z" transform="translate(-687.05 -489.72)"/><path class="cls-1" d="M687.05,734q0-26.79,0-53.58c0-8.32,4.08-12.46,12.39-12.49q18.18-.08,36.35,0c8.29,0,12.39,4.16,12.4,12.5q0,53.4,0,106.79c0,9.33-4,13.28-13.17,13.3q-17.61,0-35.23,0c-8.68,0-12.74-4.16-12.75-12.92Q687,760.81,687.05,734Z" transform="translate(-687.05 -489.72)"/><path class="cls-1" d="M944.47,489.72c-51.8-.21-92.35,42.1-93.46,89.86-1.31,56.4,44,97.57,93.24,97,51.52,0,93.77-41.8,93.74-92.75A93.62,93.62,0,0,0,944.47,489.72Zm24.13,85.8c-2.71,0-4,.58-5,3.43-4.93,13.62-14.94,21-29.27,22.69-1.12.13-2.24.16-3.36.25-.11,0-.2.1-.54.31.36,1.33,1.55,2.09,2.44,3,9.42,9.65,18.89,19.26,28.29,28.93,1,1.08,2.86,2,2.05,4s-2.88,1.37-4.53,1.65c-9.71,1.59-16.92-1.7-23.27-9.45-6.93-8.48-15.18-15.88-22.94-23.66a6.53,6.53,0,0,1-2.18-5.26c.14-3.74.15-7.49,0-11.24-.11-2.92,1.12-4,4-4,5.5.09,11,.05,16.49,0,6.59,0,12.26-2.08,16.18-7.73.48-.69,1.37-1.39,1-2.29s-1.56-.56-2.38-.56c-10.24,0-20.48,0-30.73,0-4.49,0-5-.45-4.92-4.93.06-11.34-1.39-10.24,10.14-10.26,8.24,0,16.48,0,24.73,0,.79,0,1.89.49,2.34-.51s-.5-1.59-1-2.27c-3.66-5.22-8.87-7.51-15.07-7.66-5.62-.13-11.25-.15-16.86,0-3.31.1-4.52-1.28-4.35-4.45.14-2.61.05-5.24,0-7.86S911,534,913.49,534q31.1,0,62.2,0c2.39,0,3.4,1.17,3.51,3.39,0,.13,0,.25,0,.38,0,13.74,1.13,11.13-10.53,11.35-2.73,0-5.46,0-8.75,0,1.77,3.45,3.32,6.3,4.1,9.45.38,1.51,1.3,1.87,2.74,1.82,2.74-.09,5.49.07,8.24,0,3.08-.12,4.25,1.34,4.22,4.3C979.15,577.51,980.35,575.49,968.6,575.52Z" transform="translate(-687.05 -489.72)"/></svg>