<svg id="Layer_1" data-name="Layer 1" xmlns="http://www.w3.org/2000/svg" viewBox="0 0 217.62 234.71"><defs><style>.cls-1{fill:#cb6608;}</style></defs><title>Ownership</title><path class="cls-1" d="M951.84,637.24q0,19.31,0,38.61c0,5.64-1.23,6.92-6.74,7-4.37,0-8.75-.09-13.12,0-2.09.06-2.76-.48-2.6-2.73,1.4-19.61-5.94-35.56-20.71-48.23-1.58-1.36-2.56-2.63-2.25-4.71a1.15,1.15,0,0,0,0-.37c-1.48-7.19-2.61-14.33-.62-21.69.63-2.33-.29-5.1-1.63-7.18-2-3.06-2.45-6-1-9.35a8,8,0,0,0,.35-5.89c-2.14-5.27-.4-9.7,1.38-14.7,2.73-7.66.57-15.16-4.34-21.47a198.18,198.18,0,0,0-14.33-16.32c-8-8.23-20.84-8.42-28.35.14-6.12,7-12.07,14.38-14.3,23.81a20.4,20.4,0,0,0-.42,4.82q.06,34.29.23,68.59a6,6,0,0,1-2.78,5.54c-14.57,10.8-22.33,25.16-22.27,43.53,0,2.21,1.73,5,.11,6.42s-4.54.41-6.89.48c-2.87.09-5.75.09-8.62,0-4-.11-5.69-1.8-5.75-5.76-.13-8.12-.17-16.24-.22-24.36-.12-18.24-.29-36.47-.24-54.71,0-3.05-.92-3.77-3.79-3.69-7.12.19-14.25,0-21.37.07-2.49,0-4.73-.3-5.9-3-1.22-2.82.1-4.79,2-6.62L831.06,525l35.25-33.62c.9-.86,1.8-1.72,2.73-2.56,3.33-3,5.81-3.05,9.1,0q20.82,19.43,41.58,38.9,29.94,28,59.91,56c2.13,2,4,4,2.76,7.08s-4.13,3.19-7,3.19c-6.62,0-13.25.31-19.86,0-3.51-.16-4.06,1.1-4,4.23.17,13,.07,26,.07,39Z" transform="translate(-765.18 -486.52)"/><path class="cls-1" d="M898.93,637.6c-2-1.34-3-2.65-2.72-5.08.81-6.73-.42-12.74-7.12-16.81,8.77-6.14,8.87-13,.72-19.36-1.56-1.22-2.18-1.79-.28-3.46,5.07-4.46,5.52-10.78.78-15.41-2.62-2.56-1.83-3.6.37-5.64,6.54-6.05,6.84-12.91,1.08-19.73C887.9,547.53,884,543,880,538.54c-5.07-5.64-12.12-5.23-16.53,1-2.54,3.56-4.8,7.3-7.32,10.87a14.94,14.94,0,0,0-2.78,9.11c.12,12.86.11,25.73.15,38.59,0,11.74-.07,23.48.27,35.21.07,2.8-.51,4.15-2.93,5.53C829.39,651,822.52,674.69,834,696.46a45.79,45.79,0,0,0,72.53,11.87C926.74,688.82,923,653.64,898.93,637.6Zm-3.29,66.9a35.12,35.12,0,0,1-43.1-1c-12.47-10-17.17-27.43-11-41.11a32.71,32.71,0,0,1,16.77-16.42c4.25-1.95,5.48-4.73,5.43-9.1-.27-23.73-.21-47.47-.59-71.2-.09-5.63,1.08-10.34,4.47-14.87,4.41-5.89,4.17-6.08,8.9-.63,2.3,2.63,4.49,5.37,6.88,7.92s2.13,4.73-.42,7c-2.06,1.81-4,3.77-5.91,5.74-2.42,2.5-2.26,5.06-.05,7.66,1.91,2.23,5.82,3.91,5.53,6.48-.24,2.14-3.88,3.86-5.95,5.84-3.28,3.13-3.08,6.31.55,9.13,1.77,1.37,3.62,2.64,5.73,4.18-2.21,1.94-4.15,3.52-5.94,5.25-2.73,2.66-2.76,5.42-.25,8.2a6,6,0,0,0,.8.79c6.62,4.8,10.16,10.86,8.67,19.4-.59,3.38,1.85,5.22,4.69,6.85C913.42,657.43,915.91,689.24,895.64,704.5Z" transform="translate(-765.18 -486.52)"/><path class="cls-1" d="M894.18,678.74c0,10.84-9.09,20.17-19.58,20.13a20.6,20.6,0,0,1-20.86-20.56c0-10.87,9.56-20.2,20.54-20.08C885.5,658.35,894.19,667.31,894.18,678.74Z" transform="translate(-765.18 -486.52)"/></svg>