<svg id="Layer_1" data-name="Layer 1" xmlns="http://www.w3.org/2000/svg" viewBox="0 0 267.77 322.49"><defs><style>.cls-1{fill:#cb6608;}</style></defs><title>Quality with Efficiency</title><path class="cls-1" d="M915.32,809.9c-11.51-24.06-22.85-47.75-34.39-71.89,6.36-.54,12.24-1.24,17.68-4,6-3,11-7.43,15.51-12.22a22.32,22.32,0,0,1,14.66-7.09c6.71-.71,6.68-.94,9.7,5.35q14.38,30,28.77,60c.53,1.11,1,2.24,1.51,3.42-5.86,0-11.53.07-17.2,0-4.37-.07-8.74-.23-13.09-.56a5,5,0,0,0-5,2.42c-5,7-10.2,13.87-15.33,20.79C917.32,807.28,916.42,808.44,915.32,809.9Z" transform="translate(-747.6 -487.46)"/><path class="cls-1" d="M812.59,810c-6.32-8.53-12.31-16.5-18.14-24.59a5.23,5.23,0,0,0-4.9-2.49c-10,.14-19.95.06-30.22.06l34.28-71.49c2.33,2.9,4.23,5.65,6.52,8,11,11.45,24.54,13.87,39.57,10.74,3.76-.78,7.57-1.28,12.08-2Z" transform="translate(-747.6 -487.46)"/><path class="cls-1" d="M982,673.19c19,.36,33.62,15.32,33.36,34.1A34,34,0,0,1,979,740.37c-17.31-1-31.48-16.5-31-35.29C948.39,687.37,963.89,672.84,982,673.19Z" transform="translate(-747.6 -487.46)"/><path class="cls-1" d="M988.46,723.89c-3.36,0-6.74.2-10.09,0-3.66-.28-5.61-2.63-5.69-6.23-.13-5.74,0-11.49,0-17.24a6.51,6.51,0,0,1,1.89-4.74c2.88-3,5.8-5.87,8.73-8.76,1.24-1.22,2.63-2,4.27-.65,1.43,1.2,1.31,2.65.41,4-1.33,2-1.43,5.35-5.14,5a1,1,0,0,0-1,1.28c.17,1,1,1,1.77,1h12.74c1,0,2,0,3,0,1.53.13,2.68.83,2.68,2.52s-1.18,2.15-2.51,2.26c-1.61.14-3.24.07-4.86.13-.86,0-2,0-1.93,1.2.06,1,1.06,1.23,2,1.23,1.88,0,3.75,0,5.62,0,1.6,0,2.82.57,2.87,2.23s-1.12,2.42-2.7,2.46c-2.12.05-4.24,0-6.37.07-.83,0-1.49.38-1.43,1.3s.79.87,1.41.89c1.75.06,3.51-.06,5.24.14,1.39.17,2.77.74,2.64,2.55s-1.34,2.29-2.86,2.34-3.25,0-4.87,0c-.82,0-1.62.32-1.58,1.19s.81,1.15,1.67,1.14c1.24,0,2.49,0,3.74,0s2.48.57,2.62,2.1a2.27,2.27,0,0,1-2.46,2.65c-3.24.11-6.48,0-9.73,0Z" transform="translate(-747.6 -487.46)"/><path class="cls-1" d="M962.23,709.6c0-3.87.12-7.74,0-11.6-.13-3.19,2-2.88,4-2.88s4.06-.29,4,2.87c-.11,7.73-.09,15.47,0,23.2,0,3.06-2,3-4,3s-4.1.16-4-3C962.35,717.34,962.23,713.47,962.23,709.6Z" transform="translate(-747.6 -487.46)"/><path class="cls-1" d="M899.36,575.67A9.82,9.82,0,0,0,887,577.32q-15.42,15.28-30.69,30.73c-1.76,1.78-2.82,2.14-4.67.09-3.33-3.71-6.86-7.26-10.5-10.67-4.63-4.34-10.65-4.3-14.75-.15-3.92,4-3.71,9.84.73,14.37,6.46,6.6,13,13.07,19.58,19.59a10,10,0,0,0,7,3.22c3.64-.06,6.14-1.81,8.4-4.08L900.5,592a11.32,11.32,0,0,0,3.24-4.93A10,10,0,0,0,899.36,575.67Z" transform="translate(-747.6 -487.46)"/><path class="cls-1" d="M979.59,624.28a102.75,102.75,0,0,0-4.72-15c-2.24-5.29-1.9-10.22-.34-15.56,1.82-6.19,4-12.36,4.32-18.14-.19-7.4-2.76-12.89-7.82-17.14q-7.17-6-14.51-11.86a9.93,9.93,0,0,1-3.52-5.09c-1.76-5.85-3.75-11.63-5.69-17.42-2.82-8.43-8.5-13.64-17.37-15.1a75.46,75.46,0,0,0-10-1.2c-8.26-.24-15.6-2.35-21.43-8.66-2.18-2.37-5-4.19-7.49-6.22q-11.71-9.4-25.16-2.64c-5.46,2.73-11,5.36-16.47,8a6,6,0,0,1-3.55.85c-6.32-.78-12.65-1.4-19-2.21-9.47-1.21-16.93,2-22.12,10-3.31,5.13-6.43,10.4-9.5,15.69a10.81,10.81,0,0,1-5.07,4.7c-5,2.27-9.87,4.79-14.81,7.19-10.34,5-14.66,12.63-13.69,24.16,1.43,17.06,1.43,17.06-7.41,31.58-1,1.71-2.08,3.41-3.1,5.13q-7.39,12.53.65,24.65c3.93,5.91,9.29,11.38,11.37,17.88s.77,14.1,1.15,21.21c.48,9,4.66,15.66,13,19.44,4.76,2.17,9.56,4.31,14.46,6.12a17.32,17.32,0,0,1,9.55,7.78c2.72,4.61,5.92,9,9.08,13.3,5.39,7.39,12.83,10,21.71,8.69,5.06-.74,10.11-1.63,15.1-2.71a16.35,16.35,0,0,1,11.52,1.32c4.43,2.27,9.13,4,13.75,5.9,9.21,3.78,17.56,2.51,24.93-4.38,4.2-3.93,8.49-7.74,12.69-11.67a9.86,9.86,0,0,1,5.49-2.82c6.17-.92,12.3-2.07,18.43-3.22,9.59-1.81,15.38-7.61,17.83-17,1.77-6.74,2.46-14.21,6-19.92s9.94-9.69,15.09-14.43l.28-.24C979.16,639.52,981.68,632.52,979.59,624.28ZM863.87,679.61a75.3,75.3,0,1,1,75.44-75.49C939.42,645.78,905.45,679.79,863.87,679.61Z" transform="translate(-747.6 -487.46)"/><path class="cls-1" d="M899.36,575.67A9.82,9.82,0,0,0,887,577.32q-15.42,15.28-30.69,30.73c-1.76,1.78-2.82,2.14-4.67.09-3.33-3.71-6.86-7.26-10.5-10.67-4.63-4.34-10.65-4.3-14.75-.15-3.92,4-3.71,9.84.73,14.37,6.46,6.6,13,13.07,19.58,19.59a10,10,0,0,0,7,3.22c3.64-.06,6.14-1.81,8.4-4.08L900.5,592a11.32,11.32,0,0,0,3.24-4.93A10,10,0,0,0,899.36,575.67Z" transform="translate(-747.6 -487.46)"/></svg>