<svg id="Layer_1" data-name="Layer 1" xmlns="http://www.w3.org/2000/svg" viewBox="0 0 51.28 51.28"><defs><style>.cls-1{fill:#bababa;}.cls-2{fill:#9a9a9a;}.cls-3{fill:#8c8c8c;}.cls-4{fill:#dfdfdf;}.cls-5{fill:#fdfdfd;}.cls-6{fill:#fff;}</style></defs><title>Diamond</title><polygon class="cls-1" points="50.89 15.17 39.47 19.92 31.36 11.82 36.11 0.38 50.89 15.17"/><polygon class="cls-2" points="50.9 15.17 50.9 36.11 39.48 31.37 39.48 19.92 50.9 15.17"/><polygon class="cls-3" points="50.89 36.11 36.11 50.91 31.36 39.47 39.47 31.37 50.89 36.11"/><polygon class="cls-2" points="36.11 50.91 15.18 50.91 19.91 39.47 31.36 39.47 36.11 50.91"/><polygon class="cls-1" points="19.91 39.47 15.18 50.91 0.38 36.11 11.82 31.37 19.91 39.47"/><polygon class="cls-4" points="11.82 19.92 11.82 31.37 0.38 36.11 0.38 15.17 11.82 19.92"/><polygon class="cls-5" points="19.91 11.82 11.82 19.92 0.38 15.17 15.18 0.38 19.91 11.82"/><polygon class="cls-4" points="36.11 0.38 31.36 11.82 19.91 11.82 15.18 0.38 36.11 0.38"/><polygon class="cls-6" points="39.47 19.92 39.47 31.37 31.36 39.47 19.91 39.47 11.82 31.37 11.82 19.92 19.91 11.82 31.36 11.82 39.47 19.92"/><polygon class="cls-6" points="30.83 13.08 13.08 30.85 13.08 20.45 20.45 13.08 30.83 13.08"/><path class="cls-3" d="M888.48,638.3s1.22,13.92-.58,18.25c-2,4.79-9.88,12.66-14.66,14.66-4.47,1.87-19.55,1.4-19.55,1.4l-14.19-14-.61.25,14.81,14.78h20.94l14.78-14.78V637.92Z" transform="translate(-838.51 -622.74)"/><path class="cls-4" d="M877.86,642.36v11.47l-8.1,8.07H858.31l-.93-.94s8.17.66,10.81-.43,7-5.45,8.12-8.1.61-11,.61-11Z" transform="translate(-838.51 -622.74)"/><path class="cls-5" d="M853.7,623.11l-14.81,14.81v20.94l1.19-.48s-1.15-14.23.68-18.67c2-4.83,10-12.8,14.81-14.81,4.44-1.83,18.53-.52,18.53-.52l.54-1.27Z" transform="translate(-838.51 -622.74)"/><polygon class="cls-6" points="19.56 11.96 15.18 0.38 20.26 11.67 19.56 11.96"/><polygon class="cls-6" points="31.02 11.67 36.11 0.38 31.72 11.96 31.02 11.67"/><polygon class="cls-6" points="39.32 19.57 50.9 15.18 39.61 20.27 39.32 19.57"/><polygon class="cls-6" points="39.61 31.02 50.9 36.1 39.32 31.72 39.61 31.02"/><polygon class="cls-6" points="31.72 39.32 36.11 50.9 31.02 39.61 31.72 39.32"/><polygon class="cls-6" points="20.26 39.61 15.18 50.9 19.56 39.32 20.26 39.61"/><polygon class="cls-6" points="11.96 31.72 0.38 36.1 11.67 31.02 11.96 31.72"/><polygon class="cls-6" points="11.67 20.27 0.38 15.18 11.96 19.57 11.67 20.27"/><path class="cls-6" d="M870,662.58H858.27L850,654.27V642.5l8.32-8.32H870l8.32,8.32v11.77Zm-.32-.75h0L877.6,654V642.82l-7.88-7.88H858.58l-7.87,7.88V654Z" transform="translate(-838.51 -622.74)"/><path class="cls-3" d="M874.78,674H853.53l-15-15V637.76l15-15h21.25l15,15V659Zm-20.93-.76h20.61L889,658.69V638.08L874.46,623.5H853.85l-14.58,14.58v20.61Z" transform="translate(-838.51 -622.74)"/></svg>