<svg id="Layer_1" data-name="Layer 1" xmlns="http://www.w3.org/2000/svg" viewBox="0 0 323.94 323.93"><defs><style>.cls-1{fill:#cb6608;}</style></defs><title>Zero Cancellation</title><path class="cls-1" d="M864,486c-88.64,0-161.56,72.26-162.1,159.76-.56,91.35,72.38,164.06,161.86,164.17,89,.11,162.31-72.43,162.08-161.25C1025.63,556,951.55,486.14,864,486Zm66.05,263c-47.74,31.35-112,24.87-151.66-15.69-26-26.59-37.32-58.77-35-95.76,1.26-20.08,11-46,22.21-59.57a34,34,0,0,0,2.26,2.79q81.29,81.39,162.65,162.71C933,746,933.17,747.05,930.08,749.08Zm34.23-33.85c-.48.72-1,1.4-1.69,2.26-1-.91-1.86-1.73-2.72-2.59q-81.46-81.49-163-162.95c-2.31-2.31-2.29-3.17.47-5,71.47-46.87,167.5-7.15,184.82,76.72C989,656.54,982.81,687.17,964.31,715.23Z" transform="translate(-701.93 -486.04)"/></svg>